<svg data-name="Layer 1" xmlns="http://www.w3.org/2000/svg" viewBox="0 0 24 24"><path d="M16.7 9.45a2.13 2.13 0 0 0-1.94-2.28A2 2 0 0 0 13 8.55a2.74 2.74 0 0 0-.14.87 2.59 2.59 0 0 0 .64 1.73 1.81 1.81 0 0 0 1.29.57 2.13 2.13 0 0 0 1.91-2.27zM19.33 0H4.67A4.6 4.6 0 0 0 0 4.54v14.92A4.6 4.6 0 0 0 4.67 24h14.66A4.6 4.6 0 0 0 24 19.46V4.54A4.6 4.6 0 0 0 19.33 0zM8.09 20.06 6.2 21a.77.77 0 0 1-1-.36l-2.27-4.71a.78.78 0 0 1 .37-1L5.19 14a.79.79 0 0 1 1 .37l.49 1 1.33 2.79.41.85a.78.78 0 0 1-.33 1.05zm5.59-.2a2.64 2.64 0 0 1-1.69.5 3 3 0 0 1-1.37-.29A1.39 1.39 0 0 1 12 18.91c1.3-.14 2 .63 1.68.95zm.5-2.27a5.4 5.4 0 0 1-.12 1.08 3.6 3.6 0 0 0-4 .22 4.78 4.78 0 0 1-.18-1.3 1.91 1.91 0 0 0-.08-.42l-1.47.71L7 15.1l1.49-.72c-.44-.78-.89-1.5-1.17-1.94a6.37 6.37 0 0 1-.67-4 6.22 6.22 0 0 1 1.4-3A5.62 5.62 0 0 1 12 3a5.64 5.64 0 0 1 4 2.43 6.18 6.18 0 0 1 1.39 3 6.43 6.43 0 0 1-.66 4c-.29.44-.74 1.18-1.19 2l1.46.67-1.33 2.78-1.41-.68a1.61 1.61 0 0 0-.08.39zm6.89-1.66-2.23 4.67a.77.77 0 0 1-1 .36l-1.89-.9a.78.78 0 0 1-.37-1l.41-.85 1.33-2.79.49-1a.79.79 0 0 1 1-.37l1.89.91a.78.78 0 0 1 .37.97zM9.31 7.17a2.12 2.12 0 0 0-1.94 2.26 2.66 2.66 0 0 0 .2 1 1.94 1.94 0 0 0 1.74 1.26A1.94 1.94 0 0 0 11 10.48a2.77 2.77 0 0 0 .21-1.05 2.13 2.13 0 0 0-1.9-2.26z" style="fill:#b80606"/></svg>