<svg data-name="Layer 1" xmlns="http://www.w3.org/2000/svg" viewBox="0 0 24 24"><path d="M17.82 11.12V16A2.35 2.35 0 0 0 20 13.57a2.35 2.35 0 0 0-2.18-2.45zM19.33 0H4.67A4.6 4.6 0 0 0 0 4.54v14.92A4.6 4.6 0 0 0 4.67 24h14.66A4.6 4.6 0 0 0 24 19.46V4.54A4.6 4.6 0 0 0 19.33 0zm.59 20.7a1.16 1.16 0 0 1-1.05 1.3h-15a1.16 1.16 0 0 1-1.05-1.3v-.09h17.1zm-2.12-3.32v.46a17.17 17.17 0 0 1-1.07 1.85 1.34 1.34 0 0 1-1 .4h-10a1.34 1.34 0 0 1-1-.4 17.17 17.17 0 0 1-1.07-1.85v-7.66A1.37 1.37 0 0 1 5.1 8.83h2.45a1.78 1.78 0 0 1-.48-1.28 2.92 2.92 0 0 1 .25-.84 1.71 1.71 0 0 0 .18-1.12A1.45 1.45 0 0 0 7 4.9a.14.14 0 0 1 0-.19.13.13 0 0 1 .18 0 .81.81 0 0 0 .21 0 1.15 1.15 0 0 1 .28.08c.92.49.6 1.49.34 2.3a4.87 4.87 0 0 0-.19.69 1.52 1.52 0 0 0 .15 1h3.11a2.87 2.87 0 0 1-.93-2.2 4.33 4.33 0 0 1 .38-1.33 2.78 2.78 0 0 0 .3-1.86 2.34 2.34 0 0 0-.83-1.1.13.13 0 0 1 0-.18.13.13 0 0 1 .18 0 1 1 0 0 0 .37.1 1.8 1.8 0 0 1 .43.12c1.42.76.91 2.34.5 3.61A7.8 7.8 0 0 0 11.14 7a2.38 2.38 0 0 0 .3 1.81h2.71a1.74 1.74 0 0 1-.48-1.28 2.63 2.63 0 0 1 .24-.84 1.66 1.66 0 0 0 .19-1.12 1.47 1.47 0 0 0-.5-.69.13.13 0 1 1 .16-.21.71.71 0 0 0 .21 0 1.29 1.29 0 0 1 .28.08c.92.49.6 1.49.34 2.3a4.87 4.87 0 0 0-.19.69 1.47 1.47 0 0 0 .15 1h1.9a1.31 1.31 0 0 1 .95.4 1.48 1.48 0 0 1 .25.35 3.93 3.93 0 0 1 .15 7.8zm-6.56-7-4.59 4.55a2.52 2.52 0 1 0 3.56 3.56l4.59-4.59a2.52 2.52 0 0 0-3.56-3.56zM9.63 17.9a1.69 1.69 0 0 1-2.39 0 1.67 1.67 0 0 1 0-2.39l2.3-2.3 2.39 2.39z"/></svg>