<svg data-name="Layer 1" xmlns="http://www.w3.org/2000/svg" viewBox="0 0 24 24"><path d="M19.33 0H4.67A4.6 4.6 0 0 0 0 4.54v14.92A4.6 4.6 0 0 0 4.67 24h14.66A4.6 4.6 0 0 0 24 19.46V4.54A4.6 4.6 0 0 0 19.33 0zm-2.78 7.86a.5.5 0 0 1-.12.29.47.47 0 0 1-.32.12 2.76 2.76 0 0 1 0 1.39L17 10a.8.8 0 0 0 .34 0 4.05 4.05 0 0 0 .38-.25l.8-.54h.06v.06l-.58.66a4.68 4.68 0 0 1-.38.34 1.06 1.06 0 0 1-.58.17c-.41 0-.78-.09-1.14-.14a.52.52 0 0 1-.41.25 2.5 2.5 0 0 1-.38 1.54.73.73 0 0 1 .43 0 .61.61 0 0 1 .32.37.43.43 0 0 1 0 .11V13l.1 1 .09 1a.91.91 0 0 0 .13.38.93.93 0 0 0 .13.15l.18.17A11 11 0 0 0 18 17v.08s-.05.06-.06.05A10.45 10.45 0 0 1 16.3 16l-.2-.15a1 1 0 0 1-.2-.22 1.22 1.22 0 0 1-.23-.52l-.18-1-.18-1v-.36l-.77.27a11.91 11.91 0 0 1-.88 1A20.69 20.69 0 0 1 12 15.51l.18.08.64.3a.59.59 0 0 1 .17.94l-.11.13L11 19l-.87 1c-.33.35-.81.65-.93 1.11v-.07a4.34 4.34 0 0 1 .21-.68 3 3 0 0 1 .38-.61l2.44-3.29.06-.08-.53-.21-.53-.17c-2.62 2-5.7 3.62-6.55 2.77s.77-3.92 2.77-6.54l-.22-.57-.23-.57-.09.06-2.17 1.63-1.1.81A3 3 0 0 1 3 14a3.23 3.23 0 0 1-.68.2h-.14c.48-.12.78-.6 1.13-.93l1.05-.88 2.09-1.75.13-.11a1 1 0 0 1 .28-.15.6.6 0 0 1 .66.32l.3.64.08.18c.5-.6 1-1.17 1.49-1.66.35-.34.67-.63 1-.88l.26-.77h-.13l-.24-.05-1-.18-1-.18a1.21 1.21 0 0 1-.53-.23 1 1 0 0 1-.21-.2l-.15-.19a10.07 10.07 0 0 1-1.05-1.67v-.07h.08a9.78 9.78 0 0 0 1.31 1.47l.16.19a.67.67 0 0 0 .16.12.87.87 0 0 0 .37.13l1 .1 1 .1h.43a.35.35 0 0 1 .11 0 .56.56 0 0 1 .37.32.6.6 0 0 1 0 .43 2.43 2.43 0 0 1 1.54-.3.54.54 0 0 1 .25-.41c0-.36-.09-.73-.14-1.14a1.12 1.12 0 0 1 .17-.57 4.62 4.62 0 0 1 .35-.38l.66-.7h.07v.06l-.54.8a3.76 3.76 0 0 0-.24.38.57.57 0 0 0 0 .34c.08.29.18.61.28.93a2.88 2.88 0 0 1 1.39 0 .4.4 0 0 1 .15-.31.41.41 0 0 1 .29-.13 21 21 0 0 0 1.52-5.14 1.37 1.37 0 0 1 0-.19 1.29 1.29 0 0 0 0 .19 15.89 15.89 0 0 1-1.28 5.19 1 1 0 0 1 .44.26 1.22 1.22 0 0 1 .27.44A19.12 19.12 0 0 1 23 6.13a23.68 23.68 0 0 0-6.45 1.73z"/></svg>