<svg data-name="Layer 1" xmlns="http://www.w3.org/2000/svg" viewBox="0 0 24 24"><path d="M19.33 0H4.67A4.6 4.6 0 0 0 0 4.54v14.92A4.6 4.6 0 0 0 4.67 24h14.66A4.6 4.6 0 0 0 24 19.46V4.54A4.6 4.6 0 0 0 19.33 0zm1.78 10.66-1.17 1.17-1.16-1.17 1.16-1.17zm-2.54-.21L17.4 9.29l1.17-1.17 1.17 1.17zm-2.72-7.83 3.91 3.91-3.91 3.91-3.91-3.91zm-5.12 8-1.17 1.19-1.16-1.17 1.16-1.17zm-2.54-.21L7 9.27 8.19 8.1l1.17 1.17zM5.47 2.6l3.91 3.91-3.91 3.9-3.91-3.9zm0 18.78-3.95-3.91 3.91-3.91 3.91 3.91zm2.76-5.46L7 14.75l1.17-1.16 1.17 1.16zm1.37-1.37-1.2-1.17 1.16-1.16 1.17 1.16zM9.77 12l1.16-1.17L12.1 12l-1.17 1.17zm6 9.39-3.87-3.9 3.91-3.9 3.91 3.9zm2.76-5.46-1.13-1.16 1.17-1.16 1.17 1.16zm1.37-1.37-1.12-1.16 1.16-1.16 1.17 1.16zm1.37-1.37L20.15 12l1.16-1.16L22.48 12zm-8.52 4.27 3 3 3-3-3-3z" style="fill:#662482"/></svg>