<svg data-name="Layer 1" xmlns="http://www.w3.org/2000/svg" viewBox="0 0 24 24"><path d="M13.23 13.49v-2.68h-.31a.61.61 0 0 1-.61-.62.61.61 0 0 1 .61-.61h.31v-.66h-.31a.61.61 0 0 1-.61-.61.61.61 0 0 1 .61-.62h.31v-.62h-.31a.61.61 0 0 1-.61-.61.61.61 0 0 1 .61-.62h.31a1.23 1.23 0 0 0-2.46 0v7.65a3.08 3.08 0 1 0 2.46 0zm-1.23 5a1.84 1.84 0 0 1-.62-3.58v-2.3a.31.31 0 0 1 .31-.31h.62a.31.31 0 0 1 .31.31v2.27a1.84 1.84 0 0 1-.62 3.58zM19.33 0H4.67A4.6 4.6 0 0 0 0 4.54v14.92A4.6 4.6 0 0 0 4.67 24h14.66A4.6 4.6 0 0 0 24 19.46V4.54A4.6 4.6 0 0 0 19.33 0zM12 21.23a4.92 4.92 0 0 1-3.08-8.76V5.84a3.08 3.08 0 0 1 6.16 0v6.63A4.92 4.92 0 0 1 12 21.23z" style="fill:#001390"/></svg>