<svg data-name="Layer 1" xmlns="http://www.w3.org/2000/svg" viewBox="0 0 24 24"><path d="M16.65 17.66c-.85 1-.68 1.78-.31 2.09a.77.77 0 0 0 .77.13 2.13 2.13 0 0 0 1.08-.88l.88-1.06-1.56-1.31zm3.66-3.35a.66.66 0 0 0-.2 0 1 1 0 0 0-.23 0 2.25 2.25 0 0 0-1.15.82l-.79.95 1.55 1.3.8-.95a2.3 2.3 0 0 0 .59-1.29.81.81 0 0 0-.26-.71.6.6 0 0 0-.31-.12zm-.07.65a1 1 0 0 0-.53.23 3.27 3.27 0 0 0-.51.57c-.18.19-.43-.08-.34-.23a3.47 3.47 0 0 1 .59-.65 1.16 1.16 0 0 1 .69-.32h.11a.2.2 0 0 1-.01.44zM19.33 0H4.67A4.6 4.6 0 0 0 0 4.54v14.92A4.6 4.6 0 0 0 4.67 24h14.66A4.6 4.6 0 0 0 24 19.46V4.54A4.6 4.6 0 0 0 19.33 0zm1.15 10.94a.88.88 0 0 1-.82.94h-5a.9.9 0 0 1-.83-.94.89.89 0 0 1 .83-.93h5a.89.89 0 0 1 .82.93zM18 3.9a2 2 0 1 1-2 2 2 2 0 0 1 2-2zm-6.61 15.55a.95.95 0 0 1-1.33-1.33l3.24-3.2-2.5-2.48L4 19.35a.89.89 0 0 1-1.25-.07.89.89 0 0 1-.11-1.28l10.6-10.69-1.69-1.68-2.43 2.43A.9.9 0 0 1 7.87 8a.89.89 0 0 1-.07-1.27l3-3a.71.71 0 0 1 .2-.1.87.87 0 0 1 1.2 0l3 3a.67.67 0 0 1 .18.3.84.84 0 0 1-.05 1.08l-3.14 3.18 3.16 3.14a.93.93 0 0 1 .24.89.88.88 0 0 1-.21.42zm9.44-2.55-2.08 2.51a2.82 2.82 0 0 1-1.46 1.16 1.55 1.55 0 0 1-1.4-.27c-.74-.61-.8-1.89.22-3.08l2.08-2.51a2.93 2.93 0 0 1 1.52-1.05 1.59 1.59 0 0 1 .38-.06 1.45 1.45 0 0 1 1 .32 1.56 1.56 0 0 1 .51 1.3 3 3 0 0 1-.77 1.68z"/></svg>