<svg id="Layer1" xmlns="http://www.w3.org/2000/svg" viewBox="0 0 24 24"><path d="M19.33 0H4.67A4.6 4.6 0 0 0 0 4.54v14.92A4.6 4.6 0 0 0 4.67 24h14.66A4.6 4.6 0 0 0 24 19.46V4.54A4.6 4.6 0 0 0 19.33 0zm-.82 3.46a1.55 1.55 0 0 1 0 3.09A1.51 1.51 0 0 1 17 5a1.51 1.51 0 0 1 1.51-1.54zm-12.38 0a1.55 1.55 0 0 1 0 3.09A1.51 1.51 0 0 1 4.64 5a1.51 1.51 0 0 1 1.49-1.54zm3.79 10.23a.59.59 0 0 1-.73-.41C9.05 12.81 8 9 8 9h-.37l2 7.1H7.71v5.38a.71.71 0 0 1-.7.72.71.71 0 0 1-.71-.72v-5.34H6v5.38a.71.71 0 0 1-.7.72.71.71 0 0 1-.71-.72v-5.38H2.61l2-7.1h-.34s-1.08 3.77-1.21 4.24a.59.59 0 0 1-.73.41.6.6 0 0 1-.39-.75c.07-.25.74-2.62 1.3-4.55A2 2 0 0 1 4.93 7h2.39A2 2 0 0 1 9 8.39c.55 1.93 1.2 4.3 1.27 4.55a.59.59 0 0 1-.35.75zm3.31 8.55h-1.62V3.51h1.62zm8.86-8.53a.65.65 0 1 1-1.3 0V9.4h-.34v11.92a.88.88 0 1 1-1.76 0v-6.9h-.36v6.9a.88.88 0 1 1-1.76 0V9.4h-.34v4.31a.65.65 0 1 1-1.3 0V8.93a2 2 0 0 1 1.93-2h3.3a2 2 0 0 1 1.93 2z"/></svg>