<svg data-name="Layer 1" xmlns="http://www.w3.org/2000/svg" viewBox="0 0 24 24"><path d="M19.33 0H4.67A4.6 4.6 0 0 0 0 4.54v14.92A4.6 4.6 0 0 0 4.67 24h14.66A4.6 4.6 0 0 0 24 19.46V4.54A4.6 4.6 0 0 0 19.33 0zM16.9 12a.63.63 0 0 1 .61.64v3.09a1 1 0 0 1-.93 1h-2.49a1.86 1.86 0 0 1-1.82-1.89 1.9 1.9 0 0 1 .23-.92l.61-1.12-1.11-.66a.76.76 0 0 1-.28-1 .71.71 0 0 1 1-.28l1.86 1.08a1 1 0 0 1 .36 1.34l-.39.72h1.8v-1.32a.63.63 0 0 1 .55-.68zM14.5 1.22a1.93 1.93 0 0 1 1.9 2 1.9 1.9 0 1 1-3.8 0 1.93 1.93 0 0 1 1.9-2zM7.86 14.08v7.72a1 1 0 1 1-1.9 0v-7.72H3.13l1.5-5.26A4.16 4.16 0 0 1 6.55 6.3l3.86-2.25a1.72 1.72 0 0 1 2.38.69 1.75 1.75 0 0 1 .23.82v3l2.68 1.59a.78.78 0 0 1 .3 1.05.74.74 0 0 1-1 .3l-3.11-1.81A.81.81 0 0 1 11.5 9V7.56L9.08 9l1.49 5.11zm13 4.15H11.5v-1.15h9.36zm-1.48-1.45a1.54 1.54 0 1 1 1.49-1.54 1.52 1.52 0 0 1-1.49 1.54z" style="fill:#5b912d"/></svg>