<svg data-name="Layer 1" xmlns="http://www.w3.org/2000/svg" viewBox="0 0 24 24"><path d="M19.33 0H4.67A4.6 4.6 0 0 0 0 4.54v14.92A4.6 4.6 0 0 0 4.67 24h14.66A4.6 4.6 0 0 0 24 19.46V4.54A4.6 4.6 0 0 0 19.33 0zM9.72 7.48a2 2 0 0 1 2 1.82A1.65 1.65 0 0 1 10 11.12 2 2 0 0 1 8 9.3a1.65 1.65 0 0 1 1.72-1.82zm8.86-3A2.44 2.44 0 0 1 16.17 6l-1.71 3.15a.43.43 0 0 1 .2.64l-1.94 2.45h-.05l-.09.12a2.09 2.09 0 0 1-.52.45l.21 2.33.12 1.38.43 4.93c0 .31-.29.56-.71.56a.76.76 0 0 1-.81-.56l-.43-4.92h-.67l.43 4.92c0 .31-.29.56-.71.56a.76.76 0 0 1-.81-.56l-.43-4.93-.29-3.41H8l-1.13 2.77c0 .24-.23.44-.56.44a.6.6 0 0 1-.63-.44l1-2.72a.3.3 0 0 1 0-.08.63.63 0 0 1 0-.13 2.35 2.35 0 0 1 .94-1.33h4.18l1.87-2.36a.56.56 0 0 1 .52-.17l1.6-3.16a2.27 2.27 0 0 1-.67-3.09 2.27 2.27 0 0 1 2.84-1.39 2.27 2.27 0 0 1 .62 3.06z" style="fill:#b80606"/></svg>