<svg data-name="Layer 1" xmlns="http://www.w3.org/2000/svg" viewBox="0 0 24 24"><path d="M19.33 0H4.67A4.6 4.6 0 0 0 0 4.54v14.92A4.6 4.6 0 0 0 4.67 24h14.66A4.6 4.6 0 0 0 24 19.46V4.54A4.6 4.6 0 0 0 19.33 0zm2.81 18.89a4.68 4.68 0 0 1-2.76.73l-5-.05a4.32 4.32 0 0 1-2.79-.57 2.32 2.32 0 0 1-.77-.92l-1.73 1.31L.76 8.81l7.63-6 8.33 10.57-1.23 1h4.09a4.55 4.55 0 0 1 2.71.79 2.28 2.28 0 0 1 .42.4 2.12 2.12 0 0 1 .53 1.43 2.4 2.4 0 0 1-1.1 1.89zm-12.68-.76-.08.07-.07-.1-6.94-8.82-.08-.09.08-.07 6-4.69.08-.06.07.09 7 8.82.08.09-.09.07-1.15.91H14.82l-.05-.13 1.05-.83-7.53-9.51-6.41 5.06 7.44 9.49 1.08-.86.32.2a2.54 2.54 0 0 1-.1-.55zm5.73-4.82-6.8-8.62-5.78 4.56 6.79 8.63 1.22-1c.13-1.26 1.32-2.36 3.23-2.55zM8.34 6.38l.12.15-2.81 2.21-.12-.15zm-3.5 4.33 4.31-3.4.12.16L5 10.86zm.67.84 4.31-3.4.12.16-4.31 3.4zm.66.84L10.48 9l.12.15-4.31 3.4zm.66.85 4.31-3.4.12.15L7 13.39zm.66.84 4.32-3.4.12.15-4.32 3.4zm.79 1-.12-.15 4.31-3.4.12.15zm3.34-.85-.12-.15 1.84-1.45.12.15zm2.91 1.17c-2-.05-2.82.91-2.86 1.65a1.16 1.16 0 0 0 .56 1 3.22 3.22 0 0 0 2.14.43H16.53l.14-3.1h-2.13zm7.36.88a1.55 1.55 0 0 0-.27-.24 3.42 3.42 0 0 0-2.08-.58h-1.9l-.13 3.1h1.91a3.69 3.69 0 0 0 2.12-.56 1.31 1.31 0 0 0 .62-1 1 1 0 0 0-.1-.51 1.38 1.38 0 0 0-.17-.22zm-.69.78a1.45 1.45 0 0 0-.78-.4 4.31 4.31 0 0 0-1.17-.06c-.4 0-.3-.59 0-.62a5.16 5.16 0 0 1 1.33.07 1.73 1.73 0 0 1 1 .5l.11.15a.31.31 0 0 1-.49.35z"/></svg>