<svg data-name="Layer 1" xmlns="http://www.w3.org/2000/svg" viewBox="0 0 24 24"><path d="M19.09 0H4.91A1.93 1.93 0 0 0 3 1.92v20.16A1.93 1.93 0 0 0 4.91 24h14.18A1.93 1.93 0 0 0 21 22.08V1.92A1.93 1.93 0 0 0 19.09 0zM19 18a1.93 1.93 0 0 1-1.94 1.91H7.34A1.93 1.93 0 0 1 5.4 18V5.37a1.93 1.93 0 0 1 1.94-1.92h9.71A1.93 1.93 0 0 1 19 5.37zm-2.9-9.49h.19a.87.87 0 0 0 .88-.87v-1a.87.87 0 0 0-.88-.87h-.19a.87.87 0 0 0-.88.87v1a.87.87 0 0 0 .88.87zm-1.76-2.73H6.86v1h7.48zm0 2H6.86v.5h7.48zm-7.48 2.27h10.58v-.49H6.86zm0 1.54h10.58v-.49H6.86zm0 1.54h10.58v-.49H6.86zm0 1.54h10.58v-.49H6.86zm0 1.54h10.58v-.49H6.86zm0 1.54h10.58v-.49H6.86z"/></svg>