<svg data-name="Layer 1" xmlns="http://www.w3.org/2000/svg" viewBox="0 0 24 24"><path d="M16.6 6.18a4.35 4.35 0 0 0-3.09 1.3l6.57 5.62a4.3 4.3 0 0 0 .86-2.58 4.35 4.35 0 0 0-4.34-4.34zm-4.33 4.34a4.33 4.33 0 0 0 7.15 3.28l-6.5-5.56a4.31 4.31 0 0 0-.65 2.28zM19.33 0H4.67A4.6 4.6 0 0 0 0 4.54v14.92A4.6 4.6 0 0 0 4.67 24h14.66A4.6 4.6 0 0 0 24 19.46V4.54A4.6 4.6 0 0 0 19.33 0zM2.1 9.88V7.31a16.9 16.9 0 0 1 .2-3 1.55 1.55 0 0 1 2-1l.25.11a3 3 0 1 1-.49 3.78l-.45.62zM15 20s-.71 2.59-2.91 2.82H4v-11.9s6.16-3.44 5.77 3.6c.01 0 6.62 1.48 5.23 5.48zm1.64-4.21a5.3 5.3 0 1 1 5.3-5.3 5.31 5.31 0 0 1-5.34 5.33z" style="fill:#b80606"/></svg>