<svg data-name="Layer 1" xmlns="http://www.w3.org/2000/svg" viewBox="0 0 24 24"><path d="M19.33 0H4.67A4.6 4.6 0 0 0 0 4.54v14.92A4.6 4.6 0 0 0 4.67 24h14.66A4.6 4.6 0 0 0 24 19.46V4.54A4.6 4.6 0 0 0 19.33 0zm.22 6.71a.77.77 0 0 1 0 1.09l-2.79 3.29h-3.45l5.15-4.38a.77.77 0 0 1 1.09 0zM12.8 8.93h-.24a6.32 6.32 0 0 1-2.66-1 7.07 7.07 0 0 0 .85.06h.1a5.56 5.56 0 0 0 2.07-.35 3.77 3.77 0 0 0 1.28-.93l.19.08a3.52 3.52 0 0 1 .39.16L15 7l.33.2a4.14 4.14 0 0 1 .58.45 5.4 5.4 0 0 1-3.11 1.28zm-3.16-1v-.19c0-.09.05 0 .11.08zM3.69 5a4.4 4.4 0 0 1 1.23-.2 3.31 3.31 0 0 1 .55 0c0 .12.12.25.17.38l.1.2c.06.13.13.25.2.37l.06.19a1.77 1.77 0 0 0 .16.22 1.94 1.94 0 0 0 .21.29h-.19a4.23 4.23 0 0 0-1.35.23l-.15-.18c-.13-.15-.26-.31-.37-.46A6.47 6.47 0 0 1 3.69 5zm4.74 1.12-.06.28a3.33 3.33 0 0 1-.25-.28 4.4 4.4 0 0 1-.78-2h.08a4 4 0 0 1 .83.7v.3a4.34 4.34 0 0 0 .18 1zM10.67 5a4 4 0 0 1 .91-.78h.07a4.29 4.29 0 0 1-.78 2 2.18 2.18 0 0 1-.25.28 4.74 4.74 0 0 0-.1-.49 5.58 5.58 0 0 0 .13-.69c.03-.18.02-.27.02-.32zm2.06-1.32a4.77 4.77 0 0 1 1.13-.2 6.06 6.06 0 0 1-.26 1.18s0 .11-.05.16a4.18 4.18 0 0 0-1.69.57 4.68 4.68 0 0 0-1.19 1.07c.08-.09.18-.19.26-.29a4.37 4.37 0 0 0 .78-2 4.56 4.56 0 0 1 1.02-.52zM15.33 5a6.56 6.56 0 0 1-.58 1 5 5 0 0 1-.37.46l-.15.17a4.22 4.22 0 0 0-1.34-.23h-.23a3 3 0 0 0 .2-.29 1.77 1.77 0 0 0 .14-.17l.08-.12c.07-.12.14-.24.2-.37a2 2 0 0 0 .11-.2c0-.13.13-.26.17-.38a3.31 3.31 0 0 1 .55 0 4.32 4.32 0 0 1 1.22.13zM9.54 7.34a6.87 6.87 0 0 0 .66-.48 5.63 5.63 0 0 1-.32.65zm.29.19-.24.17c0-.08 0-.18-.07-.28v-.06zm.88-.53c-.28.15-.53.29-.72.41a8.35 8.35 0 0 1 .66-.93c.02.21.05.38.06.52zm-.05-.54a4.9 4.9 0 0 1 1.2-1.07 4.1 4.1 0 0 1 1.67-.57l-.07.18c0 .11-.1.22-.15.33a4.63 4.63 0 0 1-.29.53c-.09.13-.18.27-.29.4s-.09.12-.14.17a5.08 5.08 0 0 0-1.86.57c-.02-.15-.04-.33-.07-.52zm-.7 1c.1-.2.21-.42.32-.66l.39-.37A9.45 9.45 0 0 0 10 7.45zm.3-.68a6.06 6.06 0 0 0 .28-.78 4.3 4.3 0 0 1 .09.47 4.12 4.12 0 0 1-.37.3zm0 0a5.05 5.05 0 0 1-.68.49 6.83 6.83 0 0 1 .82-1.92 5.52 5.52 0 0 1 .16.54 6.2 6.2 0 0 1-.33.91zm-.26.68c.19-.12.45-.27.74-.42v.56l-.44.15-.38-.2a.9.9 0 0 1 .08-.09zm.7.54c-.36 0-.67 0-.83-.06l.44-.12zm-.37-.19a4 4 0 0 0 .41-.14V8zm.4-.72a5.14 5.14 0 0 1 1.84-.57c-.08.08-.14.17-.23.25a5.37 5.37 0 0 1-1.58.87c0-.2-.01-.39-.03-.64zm0 .58a5.37 5.37 0 0 0 1.59-.89 3.07 3.07 0 0 0 .25-.26h.25a4.46 4.46 0 0 1 1.33.22 3.75 3.75 0 0 1-1.27.92 5.51 5.51 0 0 1-2.03.34h-.09a3.09 3.09 0 0 0 0-.38zm-.22-1.75a3.13 3.13 0 0 0-.16-.52l.3-.4v.23a4.66 4.66 0 0 1-.11.64zm-.16-.54a4.06 4.06 0 0 0-.27-.6A4.83 4.83 0 0 0 9.52 4a4.87 4.87 0 0 1 .79-.69 4.84 4.84 0 0 1 .3 1.15 1.1 1.1 0 0 1 0 .18 1.56 1.56 0 0 1 0 .37 3.18 3.18 0 0 0-.23.32zm-.29-.59a3.33 3.33 0 0 1 .27.61 6.91 6.91 0 0 0-.83 2 6.52 6.52 0 0 0-.83-2 4.18 4.18 0 0 1 .27-.61A4.79 4.79 0 0 1 9.51 4a4.27 4.27 0 0 1 .58.74zm-1 2.83.05.09zm0-.12c-.06-.19-.18-.35-.3-.5s-.09-.2-.13-.3a5.56 5.56 0 0 0 .85.64l-.31.18zm0 .14-.32.16-.46-.2v-.56a6.55 6.55 0 0 1 .62.35zm-.45-1c-.07-.07-.14-.13-.2-.2v-.27c.07.15.12.3.18.45zm-.15-.5a5.26 5.26 0 0 1 .21-.75 6.83 6.83 0 0 1 .82 1.92 5.64 5.64 0 0 1-.85-.65 4 4 0 0 1-.2-.54zm-.06.32.22.22c0 .08.06.15.1.23L8.4 6.5zm1.11.92v.06c0 .1-.05.2-.07.28l-.24-.17zm-.59-2.65a4.11 4.11 0 0 0-.28.6 3.58 3.58 0 0 0-.29-.39l-.07-.06a4.94 4.94 0 0 1 .34-1.68 5.18 5.18 0 0 1 .88.8 4.27 4.27 0 0 0-.58.73zM8.35 5a4 4 0 0 1 .29.39 6.68 6.68 0 0 0-.21.73 4.59 4.59 0 0 1-.16-.9v-.28zm0 1.55c.13.17.26.34.37.5s.11.24.17.36c-.17-.11-.38-.22-.61-.34.05-.21.07-.38.1-.57zM8.29 7a5.08 5.08 0 0 0-1.84-.57l-.14-.17A4.85 4.85 0 0 1 6 5.88a4.85 4.85 0 0 1-.3-.54L5.56 5l-.07-.18a4.1 4.1 0 0 1 1.67.57 4.73 4.73 0 0 1 1.2 1.07c-.03.21-.05.39-.07.54zm-2.11-.54h.24c.09.09.16.18.25.26a5.49 5.49 0 0 0 1.59.89V8h-.09a5.51 5.51 0 0 1-2.06-.4 3.85 3.85 0 0 1-1.27-.92 4.53 4.53 0 0 1 1.34-.22zm2.08 1.13a5.37 5.37 0 0 1-1.58-.87l-.23-.25A5.08 5.08 0 0 1 8.29 7c-.02.25-.03.44-.03.59zm0 0a3.45 3.45 0 0 0 .42.14l-.4.27zm.44.15.44.12c-.17 0-.47.05-.84.06zm0 0 .3-.15.15.26zm.38-.2.25.17-.15.1a2.46 2.46 0 0 0-.05-.25zm.15.27.15-.1v.19h-.13.05zm0 .08h.13V8h.24a1.56 1.56 0 0 1-.16.24 3.53 3.53 0 0 1-.19-.33zm.19.34-.22-.34zM9.51 8h-.1a1.23 1.23 0 0 1 0-.21c0-.07 0-.16.06-.25a1.49 1.49 0 0 1 .06.25V8zm.09-.24.25-.17-.14.25zm.31-.14.36.19-.43.12h-.08zm3.64-4.11a4.75 4.75 0 0 0-1.41.4 4.75 4.75 0 0 1 1.41-.45zm-3.06-.31.29-.2.22-.1.14-.07a3.17 3.17 0 0 1 .61-.2 6.13 6.13 0 0 1 0 1.12 1.1 1.1 0 0 1 0 .18v.19a4.1 4.1 0 0 0-1 .84V4.8a3.45 3.45 0 0 0-.07-.55 3 3 0 0 0-.1-.43 2.29 2.29 0 0 0-.08-.28c0-.09-.05-.18-.09-.27zm-.55-.64.15.27a1.89 1.89 0 0 1 .11.17 1.47 1.47 0 0 1 .1.22 4.43 4.43 0 0 0-.79.69 4.28 4.28 0 0 0-.89-.75c.05-.12.1-.21.15-.31l.09-.19.14-.23.06-.09a3.76 3.76 0 0 1 .41-.53 7.06 7.06 0 0 1 .4.61.41.41 0 0 1 .07.09zm-.45-.73a4.45 4.45 0 0 0-.88 1.4 4.45 4.45 0 0 1 .88-1.45zM8.26 4.86a4.22 4.22 0 0 0-.92-.76v-.19a1.1 1.1 0 0 1 0-.18 9.06 9.06 0 0 1 0-1.12 3.14 3.14 0 0 1 .58.19l.08.07.18.13.29.16.13.08a4.8 4.8 0 0 0-.34 1.62zm.27-1.73a5.27 5.27 0 0 0-1.17-.52 5.27 5.27 0 0 1 1.17.52zm-1.21 1a4.28 4.28 0 0 0 .79 2 3.58 3.58 0 0 0 .26.29 4.68 4.68 0 0 0-1.2-1.03 4.14 4.14 0 0 0-1.68-.57 1 1 0 0 1-.06-.16 6.06 6.06 0 0 1-.26-1.18 4.82 4.82 0 0 1 1.14.2 4.29 4.29 0 0 1 1.01.43zM4.81 6.68a4.93 4.93 0 0 0-1.46.79 4.93 4.93 0 0 1 1.46-.79zm-1.08.54L4.06 7l.18-.09a3.52 3.52 0 0 1 .39-.16l.19-.08a4 4 0 0 0 1.28.93 5.63 5.63 0 0 0 2.07.4h.1a7.07 7.07 0 0 0 .85-.06 6.26 6.26 0 0 1-2.66 1h-.24a5.4 5.4 0 0 1-3.07-1.27 4.14 4.14 0 0 1 .58-.45zM19.86 14h-.13v.07c0 2.64-2.19 5-3.91 6.56h.09a.77.77 0 0 1 .77.77.78.78 0 0 1-.77.78H8.09a.78.78 0 0 1-.77-.78.77.77 0 0 1 .77-.77h.09c-1.72-1.59-3.91-3.92-3.91-6.56V14h-.13a1.16 1.16 0 1 1 0-2.32h15.72a1.16 1.16 0 1 1 0 2.32zm-13.57.07a.29.29 0 0 0-.58 0c0 2.43 1.93 4.57 3.61 6.15a.24.24 0 0 0 .2.08.3.3 0 0 0 .21-.09.3.3 0 0 0 0-.41c-1.61-1.47-3.44-3.48-3.44-5.69z" style="fill:#0016aa"/></svg>