<svg data-name="Layer 1" xmlns="http://www.w3.org/2000/svg" viewBox="0 0 24 24"><path d="M16.86 5.61a2.21 2.21 0 0 1-.38 1 2.16 2.16 0 0 1-.85.71.93.93 0 0 0 .13-.15 1.59 1.59 0 0 0 .23-1 1.55 1.55 0 0 0-.85.55 1.62 1.62 0 0 0-.1.18 2.32 2.32 0 0 1 .38-1 2.21 2.21 0 0 1 .83-.69A7.91 7.91 0 0 0 12 4a8 8 0 0 0-5.73 2.37L10.46 10a3.66 3.66 0 0 1 .46-.6 3.41 3.41 0 0 1 .64 1.54l.63.54 3.08-4.21-2.92 4.35.57.49a3.38 3.38 0 0 1 1.87 0 3.51 3.51 0 0 1-.72 1l4.39 3.75a8 8 0 0 0-1.6-11.18zm-4.22 4.8a1.57 1.57 0 0 0 0-.24A1.84 1.84 0 0 0 12.29 9a1.9 1.9 0 0 0-.51 1.08 1.93 1.93 0 0 0 0 .24 2.66 2.66 0 0 1-.26-1.28 3.18 3.18 0 0 1 .87-1.84 3.2 3.2 0 0 1 .65 1.93 2.8 2.8 0 0 1-.4 1.28zm1.48-2.11a2 2 0 0 0 0-.24 1.91 1.91 0 0 0-.38-1.13A1.89 1.89 0 0 0 13.26 8a1.93 1.93 0 0 0 0 .24A2.78 2.78 0 0 1 13 7a3.18 3.18 0 0 1 .87-1.84 3.13 3.13 0 0 1 .65 1.93 2.8 2.8 0 0 1-.4 1.21zm.72 3.11a2.76 2.76 0 0 1-1.29.18.94.94 0 0 0 .22-.07 1.81 1.81 0 0 0 .84-.85 1.88 1.88 0 0 0-1.19 0 1.13 1.13 0 0 0-.21.12 2.72 2.72 0 0 1 1-.81 3.18 3.18 0 0 1 2.05 0 3.2 3.2 0 0 1-1.42 1.43zm1.48-2.11a2.73 2.73 0 0 1-1.32.18 1.19 1.19 0 0 0 .23-.07 1.87 1.87 0 0 0 .84-.85 1.88 1.88 0 0 0-1.19 0l-.22.11a2.88 2.88 0 0 1 1-.81 3.19 3.19 0 0 1 2 0 3.2 3.2 0 0 1-1.34 1.44zm-4.49 6.4a2.76 2.76 0 0 1-1.29.18l.22-.07a1.81 1.81 0 0 0 .84-.81 1.88 1.88 0 0 0-1.19 0l-.21.11a2.82 2.82 0 0 1 1-.81 2.85 2.85 0 0 1 1.34-.18l-.47-.4-.74-.63-3.77 5.61a8 8 0 0 0 9.67-.6l-4.14-3.54a3 3 0 0 1-1.26 1.14zm-1.53 2.17a2.68 2.68 0 0 1-1.3.19l.23-.06a1.86 1.86 0 0 0 .84-.85 1.8 1.8 0 0 0-1.19 0l-.21.11a2.82 2.82 0 0 1 1-.81 3.22 3.22 0 0 1 2.05 0 3.2 3.2 0 0 1-1.42 1.42zm0-5.68a1 1 0 0 0 0 .24 3.36 3.36 0 0 1-.16-.42l-5-4.27A8 8 0 0 0 7.1 18.37l4-5.49zm-2.2 4.69a2 2 0 0 0 0-.24 1.84 1.84 0 0 0-.38-1.13 1.9 1.9 0 0 0-.51 1.08 1.93 1.93 0 0 0 0 .24A2.71 2.71 0 0 1 7 15.55a3.19 3.19 0 0 1 .87-1.85 3.24 3.24 0 0 1 .65 1.94 2.89 2.89 0 0 1-.42 1.24zm1.53-2.18a2 2 0 0 0 0-.24 1.84 1.84 0 0 0-.38-1.13 1.9 1.9 0 0 0-.51 1.08 1.93 1.93 0 0 0 0 .24 2.71 2.71 0 0 1-.26-1.28 3.18 3.18 0 0 1 .87-1.84 3.2 3.2 0 0 1 .65 1.93 2.89 2.89 0 0 1-.37 1.24zM19.33 0H4.67A4.6 4.6 0 0 0 0 4.54v14.92A4.6 4.6 0 0 0 4.67 24h14.66A4.6 4.6 0 0 0 24 19.46V4.54A4.6 4.6 0 0 0 19.33 0zM12 21.84A9.84 9.84 0 1 1 21.84 12 9.86 9.86 0 0 1 12 21.84z"/></svg>