<svg id="Layer_1" data-name="Layer 1" xmlns="http://www.w3.org/2000/svg" viewBox="0 0 24 24"><path d="M12.07 3.42a.54.54 0 0 0 .49-.58.5.5 0 1 0-1 0 .54.54 0 0 0 .51.58zM17 5.92h-1.52l.13.32h-7.1l.12-.32H7.16V20.6H17zm-8.49 2h3.13v.26H8.53zm4.86 11H8.61v-.26h4.78zm2.48-1.66H8.53V17h7.34zm0-1.43H8.53v-.26h7.34zm0-1.43H8.53v-.26h7.34zm0-1.44H8.53v-.25h7.34zm0-1.43H8.53v-.26h7.34zm0-1.43H8.53v-.31h7.34zM19.33 0H4.67A4.6 4.6 0 0 0 0 4.54v14.92A4.6 4.6 0 0 0 4.67 24h14.66A4.6 4.6 0 0 0 24 19.46V4.54A4.6 4.6 0 0 0 19.33 0zM9.18 4.5l.82-.2.12-.91a.7.7 0 0 1 .15-.39.31.31 0 0 1 .29 0h.22v-.61a1.31 1.31 0 0 1 1.31-.93c.73 0 1.21.91 1.21.91V3h.23a.39.39 0 0 1 .31.11.91.91 0 0 1 .13.34l.11.89.84.2.42 1.1h1.96v15.28H6.88V5.6h1.87zm9.41 18.08h-13v-18h3.13l-.3.82H6.64v16.12h10.88V5.4h-1.81l-.3-.82h3.18z"/></svg>