<svg id="Layer1"  xmlns="http://www.w3.org/2000/svg" viewBox="0 0 24 24"><path d="M7.08 20.41h9.86V5.73H7.09zm8.49-2h-3.13v-.26h3.13zM10.71 7.46h4.78v.26h-4.78zM8.23 9.12h7.34v.26H8.23zm0 1.43h7.34v.26H8.23zm0 1.43h7.34v.26H8.23zm0 1.43h7.34v.26H8.23zm0 1.43h7.34v.26H8.23zm0 1.44h7.34v.25H8.23zM19.33 0H4.67A4.6 4.6 0 0 0 0 4.54v14.92A4.6 4.6 0 0 0 4.67 24h14.66A4.6 4.6 0 0 0 24 19.46V4.54A4.6 4.6 0 0 0 19.33 0zm-.84 21.74h-3.12l.3-.82h1.79V4.8H6.58v16.12h1.81l.3.82H5.51v-18h13zm-11.55-1H6.8V5.41h10.42v15.32H6.94z"/></svg>