<svg xmlns="http://www.w3.org/2000/svg" viewBox="0 0 24 24"><path d="M4.59 6.82h2.53c.06 0 .11 0 .11-.08V4.9s-.05-.08-.11-.08H4.59c-.06 0-.11 0-.11.08v1.84s.05.08.11.08zM3.3 10.64c.09 0 .12 0 .21-.11a.77.77 0 0 1 1.17 0c.09.09.12.11.21.11s.11 0 .2-.11a.78.78 0 0 1 .59-.27v.05-.05a.78.78 0 0 1 .59.27c.09.09.12.11.2.11s.11 0 .21-.11a.76.76 0 0 1 .58-.27.78.78 0 0 1 .59.27c.09.09.12.11.2.11s.12 0 .21-.11a.83.83 0 0 1 .57-.27V9.8c0-.62-.52-1.76-1-1.76H3.89c-.49 0-1 1.14-1 1.76v.55a2.38 2.38 0 0 1 .22.18c.08.09.11.11.19.11zm.59 7.21h3.93a1 1 0 0 0 1-1v-6c-.07 0-.1 0-.19.11a.77.77 0 0 1-1.17 0c-.09-.09-.12-.11-.21-.11s-.11 0-.2.11a.78.78 0 0 1-1.18 0c-.09-.09-.12-.11-.2-.11s-.11 0-.2.11a.8.8 0 0 1-.59.27.78.78 0 0 1-.59-.27c-.09-.09-.12-.11-.2-.11s-.12 0-.21.11a.78.78 0 0 1-.59.27.75.75 0 0 1-.42-.13v5.77a1 1 0 0 0 1.02.98zm4.32-5.22a.2.2 0 1 1-.2.2.2.2 0 0 1 .2-.2zm-.63 2.74a.29.29 0 1 1-.28.29.28.28 0 0 1 .28-.29zm-.67-1.7a.28.28 0 1 1-.29.28.28.28 0 0 1 .29-.28zM5.71 17a.25.25 0 1 1 .29-.22.25.25 0 0 1-.29.22zm.4-4.65a.19.19 0 0 1 .19.2.18.18 0 0 1-.19.19.19.19 0 0 1-.2-.19.2.2 0 0 1 .2-.17zM5.67 15a.25.25 0 1 1-.25.25.25.25 0 0 1 .25-.25zM5 13.33a.25.25 0 0 1 .24.25.25.25 0 1 1-.49 0 .25.25 0 0 1 .25-.25zm-.92 2.1a.2.2 0 1 1-.19.2.2.2 0 0 1 .19-.2zm-.41-3.21a.25.25 0 1 1-.25.24.25.25 0 0 1 .25-.24zM19.33 0H4.67A4.6 4.6 0 0 0 0 4.54v14.92A4.6 4.6 0 0 0 4.67 24h14.66A4.6 4.6 0 0 0 24 19.46V4.54A4.6 4.6 0 0 0 19.33 0zm-4.21 10.18a1.47 1.47 0 0 1 1.47-1.46H20a1.47 1.47 0 0 1 1.47 1.46V17A1.47 1.47 0 0 1 20 18.51h-3.41A1.47 1.47 0 0 1 15.12 17zm-5.29 3.06h1.92v-2h.91v2h1.92v.87h-1.92v2h-.91v-2H9.83zM4 4.9a.61.61 0 0 1 .62-.59h2.5a.61.61 0 0 1 .62.59v1.84a.61.61 0 0 1-.62.59H4.59A.61.61 0 0 1 4 6.74zM2.37 9.8c0-.8.63-2.27 1.52-2.27h3.93c.89 0 1.52 1.47 1.52 2.27v7a1.53 1.53 0 0 1-1.52 1.52H3.89a1.53 1.53 0 0 1-1.52-1.52zm19.26 9.89H2.44v-1h19.19zm-4.43-5.52h1.07v-1.12H17.2a.57.57 0 0 0-.56.56.56.56 0 0 0 .56.56zm0 2.51h1.07v-1.12H17.2a.56.56 0 0 0-.56.56.57.57 0 0 0 .56.56zm0-5h1.07v-1.13H17.2a.56.56 0 0 0 0 1.12zM16.59 18H20a1 1 0 0 0 1-1v-6.82a1 1 0 0 0-1-1h-3.41a1 1 0 0 0-1 1V17a1 1 0 0 0 1 1zm.61-7.73h2.14a.83.83 0 0 1 .83.83.84.84 0 0 1-.83.84H17.2a.85.85 0 0 1-.84-.84.84.84 0 0 1 .84-.82zm0 2.5h2.14a.84.84 0 0 1 0 1.67H17.2a.84.84 0 1 1 0-1.67zm0 2.5h2.14a.84.84 0 0 1 0 1.67H17.2a.84.84 0 1 1 0-1.67z"/></svg>