<svg id="Layer_1" data-name="Layer 1" xmlns="http://www.w3.org/2000/svg" viewBox="0 0 24 24"><defs><style></style></defs><path d="M9 14.13 6.83 15l1.85-1.46.1-.07h-.13l-3.87.42 3.59-1.52L6 12l2.33-.35h.11-.1L4.81 10l3.86.47L6.84 9 9 9.88h.12l-.07-.1-2.29-3.09L9.87 9 9 6.84l1.46 1.84.07.1v-.13l-.42-3.87 1.52 3.59L12 6l.35 2.33v.11-.1L14 4.81 13.59 8l2.12-3A8.19 8.19 0 0 0 12 4.2c-7.9 0-9.68 9.34-5.34 13.56l.75-1.05-.72.53zm6.8-6.28 1.48-1.09L15 9.87 17.16 9l-1.84 1.46v.06l3.87-.42-3.59 1.52L18 12l-2.33.35v.05l3.52 1.6-3.86-.47L17.16 15 15 14.12l-.05.05 2.31 3.14L14.13 15l.87 2.16-1.46-1.84h-.06l.42 3.87-1.52-3.59L12 18l-.35-2.33v-.11.1L10 19.19l.47-3.84L8 18.8a8 8 0 0 0 4 1c8 0 9.74-9.66 5.12-13.77zM19.33 0H4.67A4.6 4.6 0 0 0 0 4.54v14.92A4.6 4.6 0 0 0 4.67 24h14.66A4.6 4.6 0 0 0 24 19.46V4.54A4.6 4.6 0 0 0 19.33 0zM12 21.6C-.62 21.37-.62 2.63 12 2.4c12.61.23 12.61 18.97 0 19.2z"/></svg>