<svg id="Layer_1" data-name="Layer 1" xmlns="http://www.w3.org/2000/svg" viewBox="0 0 24 24"><path d="M15.62 14.62a.39.39 0 0 0 0 .48.52.52 0 0 1 .06-.35 2.6 2.6 0 0 1 .26-.32 5.33 5.33 0 0 0 .44-.72 2.7 2.7 0 0 1-.56.71 1.1 1.1 0 0 0-.2.2zm-3.36.65c-.13.17-.1.35 0 .57a.67.67 0 0 1 .07-.42 2.79 2.79 0 0 1 .31-.39 9.71 9.71 0 0 0 .54-.87 3.35 3.35 0 0 1-.68.86 1.32 1.32 0 0 0-.24.25zm1.44 1.63a.49.49 0 0 0 0 .61.66.66 0 0 1 .07-.44 4.35 4.35 0 0 1 .33-.42 6.81 6.81 0 0 0 .57-.93 3.69 3.69 0 0 1-.71.93 1.21 1.21 0 0 0-.26.25zm-6.48-1.49a.56.56 0 0 1 .16-.21 5.75 5.75 0 0 0 1.27-1.38 5 5 0 0 0-.28 1.54l2.5-3.51c-.37.09-.8.13-1.24.2-1.64.26-4.13-1.63-3-3.83a2.2 2.2 0 0 1 2.43-.87 3 3 0 0 0 0 .85.11.11 0 0 1 .08 0c.12-2.2 2.76-2.83 3.91-2.26a3.64 3.64 0 0 1 1.34.95l1.32-1.84A8.19 8.19 0 0 0 12 4.2c-7.9 0-9.68 9.34-5.34 13.56l1.06-1.49a.59.59 0 0 1-.22-.05.61.61 0 0 1-.28-.81zm-.39-2.27a.53.53 0 0 1 .11-.14 4 4 0 0 0 .86-.94 3.39 3.39 0 0 0-.19 1.26.33.33 0 0 1 0 .17.41.41 0 1 1-.74-.35zm.85-.82a2.62 2.62 0 0 1-.51.65 1.18 1.18 0 0 0-.21.18.36.36 0 0 0 0 .43.48.48 0 0 1 0-.32 3.07 3.07 0 0 1 .32-.26 7.06 7.06 0 0 0 .4-.68zm2.13 4.61a.61.61 0 0 0 .06.75.78.78 0 0 1 .08-.54 5.21 5.21 0 0 1 .41-.52 8.29 8.29 0 0 0 .7-1.14 4 4 0 0 1-.88 1.13 1.89 1.89 0 0 0-.37.32zM7 9.18c.07 2.33 3.11 2.36 4.51 1.53v.19l.21-.29a2.31 2.31 0 0 1-.1-.28c-1.62.93-4.1.55-4.62-1.15zm.73 6a1.26 1.26 0 0 0-.31.26.5.5 0 0 0 0 .63.66.66 0 0 1 .07-.46 4.58 4.58 0 0 1 .34-.43 7.27 7.27 0 0 0 .59-1 3.94 3.94 0 0 1-.7.98zm4.94-2.87a2.6 2.6 0 0 0 3.21-.68 1.22 1.22 0 0 0 2.07-.56 1.62 1.62 0 0 1-2.09.29 2.73 2.73 0 0 1-2.94.61zM19.33 0H4.67A4.6 4.6 0 0 0 0 4.54v14.92A4.6 4.6 0 0 0 4.67 24h14.66A4.6 4.6 0 0 0 24 19.46V4.54A4.6 4.6 0 0 0 19.33 0zM12 21.6C-.62 21.37-.62 2.63 12 2.4c12.61.23 12.61 18.97 0 19.2zm3.45-13.22c2.59-1.14 5.31 4.67.73 4.16a3.71 3.71 0 0 1-4.06.52L8 18.8a8 8 0 0 0 4 1c8 0 9.74-9.66 5.12-13.77zM11 17.23a.7.7 0 0 1-.07.31.72.72 0 1 1-1.1-.87A7 7 0 0 0 11.29 15a5.75 5.75 0 0 0-.29 2.23zm2.18-1.74a.53.53 0 0 1-.06.24.55.55 0 0 1-1-.47.53.53 0 0 1 .16-.2 5.49 5.49 0 0 0 1.15-1.25 4.38 4.38 0 0 0-.3 1.68zm1.49 1.65a.62.62 0 0 1-.06.26.58.58 0 0 1-1.05-.51.64.64 0 0 1 .16-.2 5.51 5.51 0 0 0 1.22-1.33 4.7 4.7 0 0 0-.32 1.78zm1.72-2.33a.46.46 0 0 1-.05.2.45.45 0 0 1-.82-.39.42.42 0 0 1 .13-.16 4.48 4.48 0 0 0 1-1 3.64 3.64 0 0 0-.31 1.35z"/></svg>