<svg id="Layer_1" data-name="Layer 1" xmlns="http://www.w3.org/2000/svg" viewBox="0 0 24 24"><defs><style>.cls-1{fill:#b80606;}</style></defs><path  d="M11.33,11.56c.48.07.35-.35.65-.33s0,.43.54.43.44-.33.42-.64-.48-1.2-.48-1.39,0-.1-.24,0-.17,0-.28,0-.14-.06-.17.11-.31.35-.31.35C10.88,10.58,10.85,11.5,11.33,11.56Zm3.06-1.88a1.43,1.43,0,0,0,1.54-1.26,1.42,1.42,0,0,0-1.5-1.31,1.42,1.42,0,0,0-1.54,1.26A1.42,1.42,0,0,0,14.39,9.68ZM9.81,9.6a1.41,1.41,0,0,0,1.54-1.26A1.42,1.42,0,0,0,9.85,7,1.42,1.42,0,0,0,8.31,8.29,1.42,1.42,0,0,0,9.81,9.6ZM19.33,0H4.67A4.6,4.6,0,0,0,0,4.54V19.46A4.6,4.6,0,0,0,4.67,24H19.33A4.6,4.6,0,0,0,24,19.46V4.54A4.6,4.6,0,0,0,19.33,0Zm-7,2.42c8.26.15,4.22,7,4.09,7.16a1,1,0,0,0-.28.72.93.93,0,0,1-.85.94c-.53,0-1.41.45-1.46,1s-1.36.48-1.84.48-1.37,0-1.79-.6a3.68,3.68,0,0,0-1.58-1c-.26-.15-.92-.09-.91-1a1.14,1.14,0,0,0-.11-1.07C7.19,8.69,4,2.28,12.29,2.42ZM14.57,13.5c.11.52-1,.84-1.36,1.05a1,1,0,0,1-.8.19,1,1,0,0,0-.42-.06c-1.2.09-.85-.09-1.66-.48s-.69-.59-.64-1a2.87,2.87,0,0,0-.15-1,.73.73,0,0,1,.38,0c.05.25.46.61.46.61a6.41,6.41,0,0,0,3.33.08,2,2,0,0,0,.61-.57h0a.48.48,0,0,1,.28,0C14.44,12.47,14.46,13,14.57,13.5Zm4.24,6.61h-.07a.59.59,0,0,1,.07.26c0,.39-.48.69-1.06.68a1.06,1.06,0,0,1-1-.52,3,3,0,0,0-1.16-.92L12.2,18.2c-1.63.74-3.19,1.44-3.63,1.6a1.78,1.78,0,0,0-.93.83.52.52,0,0,1,0,.55.84.84,0,0,1-.24.22h0a1.46,1.46,0,0,1-1.15.11c-.53-.17-.75-.59-.51-.94l0,0a1.61,1.61,0,0,1-.37-.07c-.52-.17-.75-.59-.5-.94A1.19,1.19,0,0,1,6,19.13a4.57,4.57,0,0,0,1.72-.32l2.85-1.3L7,16a4.29,4.29,0,0,0-1.55,0l-.11,0H5.17c-.58,0-1-.33-1-.72s.45-.67,1-.68A.6.6,0,0,1,5,14.3c0-.38.48-.69,1.06-.68s1,.29,1,.65h0c.15.61,1.1.94,1.1.94l3.9,1.58L16,15.05c.37-.16.6-.73.68-.93a.14.14,0,0,1,0-.07.6.6,0,0,1,.06-.11,1.29,1.29,0,0,1,1.39-.32c.5.16.73.56.53.9a1.31,1.31,0,0,1,.44.07c.53.17.75.59.51.94a1.29,1.29,0,0,1-1.29.35h0a2.89,2.89,0,0,0-1.71.27l-2.8,1.31c1.32.54,2.45,1,2.78,1.19a3.19,3.19,0,0,0,1.52.24,1.37,1.37,0,0,1,.75-.2,1.76,1.76,0,0,1,.41.06.78.78,0,0,1,.63.66C19.86,19.81,19.39,20.12,18.81,20.11Z"/></svg>