<svg xmlns="http://www.w3.org/2000/svg" viewBox="0 0 24 24"><path d="M10.14 10.17a.9.9 0 0 0 .8-1 .9.9 0 0 0-.8-1 .9.9 0 0 0-.8 1 .9.9 0 0 0 .8 1zm3.27 2.66a1.38 1.38 0 0 0-1.22-1.48A1.38 1.38 0 0 0 11 12.83s2.43.02 2.41 0zm1.83 1.31v.24a1.25 1.25 0 0 1 .88.13 3.94 3.94 0 0 1-4 2.84c-3.06 0-3.56-2.15-3.63-2.63a1 1 0 0 1 .61-.09v-.24a1.2 1.2 0 0 0-1.33.84l.18.09H8a1.12 1.12 0 0 1 .34-.49c.12.64.77 2.76 3.81 2.76a4.19 4.19 0 0 0 4.21-3 1.25 1.25 0 0 1 .33.5l.18-.1a1.37 1.37 0 0 0-1.63-.85zm-.62-4a.89.89 0 0 0 .8-1 .89.89 0 0 0-.8-1 .89.89 0 0 0-.79 1 .89.89 0 0 0 .79 1.03zM19.33 0H4.67A4.6 4.6 0 0 0 0 4.54v14.92A4.6 4.6 0 0 0 4.67 24h14.66A4.6 4.6 0 0 0 24 19.46V4.54A4.6 4.6 0 0 0 19.33 0zm.54 12.79a.92.92 0 0 1-.54-.18c-.26 4.7-3.48 8.42-7.42 8.42s-7-3.52-7.39-8a.9.9 0 0 1-.39.1c-.77 0-1.39-1-1.39-2.24s.62-2.24 1.39-2.24A1.08 1.08 0 0 1 4.9 9c.94-3.26 3.38-5.66 6.32-6a.66.66 0 0 0-.07.32c0 .29.18.5.39.49a2.6 2.6 0 0 0 1.56-.74 8 8 0 0 1 5.82 5.87 1.17 1.17 0 0 1 .95-.62c.77 0 1.39 1 1.39 2.24s-.62 2.23-1.39 2.23z"/></svg>