<svg id="Layer_1" data-name="Layer 1" xmlns="http://www.w3.org/2000/svg" viewBox="0 0 24 24"><defs><style>.cls-1{fill:#b80606;}</style></defs><path  d="M19.33,0H4.67A4.6,4.6,0,0,0,0,4.54V19.46A4.6,4.6,0,0,0,4.67,24H19.33A4.6,4.6,0,0,0,24,19.46V4.54A4.6,4.6,0,0,0,19.33,0ZM12,1.16a1.75,1.75,0,0,1,1.74,1.77,1.74,1.74,0,1,1-3.47,0A1.75,1.75,0,0,1,12,1.16Zm4.33,11.69a.7.7,0,0,1-.89-.46L14.11,7.6h-.36l2.3,8.3H13.88V22a.86.86,0,0,1-.85.85.94.94,0,0,1-.86-.89h0v-6h-.34v6h0a.94.94,0,0,1-.86.89.86.86,0,0,1-.85-.85V15.9H8l2.3-8.3H9.89L8.56,12.39a.7.7,0,0,1-.89.46.72.72,0,0,1-.5-.93L8.54,7A2.27,2.27,0,0,1,10.68,5.1h2.64A2.27,2.27,0,0,1,15.46,7l1.37,4.91A.72.72,0,0,1,16.33,12.85Z"/></svg>