<svg id="Layer_1" data-name="Layer 1" xmlns="http://www.w3.org/2000/svg" viewBox="0 0 24 24"><defs><style></style></defs><path d="M14.38 8.85h-1.47v1.9h1.47zm.34 2.57h-2.15a1.42 1.42 0 0 0-1 .34 1.38 1.38 0 0 0-.34 1v7.34a.51.51 0 0 0 .51.51h3.87a.51.51 0 0 0 .51-.51v-7.31a1.42 1.42 0 0 0-.34-1 1.42 1.42 0 0 0-1.06-.37zm-.06 3.18h-2v-2h2zm-7.8 6.12h1.39v-.85H6.86zm-.74-3H9l.52-7.65H5.61zm.44-5.21h2v2h-2zM5.35 9.39h4.4v-.48h-4.4zM19.33 0H4.67A4.6 4.6 0 0 0 0 4.54v14.92A4.6 4.6 0 0 0 4.67 24h14.66A4.6 4.6 0 0 0 24 19.46V4.54A4.6 4.6 0 0 0 19.33 0zm-8.9 9.73a.34.34 0 0 1-.25.32l-.54 8a.28.28 0 0 1-.06.18l-.7 1.1a.34.34 0 0 1 0 .17v1.53a.35.35 0 0 1-.1.24.33.33 0 0 1-.24.1H6.52a.34.34 0 0 1-.34-.34v-1.5a.33.33 0 0 1 0-.17l-.71-1.12a.35.35 0 0 1 0-.18l-.54-8a.34.34 0 0 1-.25-.32V8.57a.35.35 0 0 1 .1-.24.31.31 0 0 1 .22-.1h5.08a.31.31 0 0 1 .24.1.35.35 0 0 1 .1.24zm6.33 10.37a1.18 1.18 0 0 1-.34.84 1.21 1.21 0 0 1-.84.35h-3.87a1.2 1.2 0 0 1-1.19-1.19v-7.31a2 2 0 0 1 .54-1.51 1.92 1.92 0 0 1 1.17-.52V8.85a.35.35 0 0 1-.31-.34.34.34 0 0 1 .34-.34H15a.34.34 0 0 1 0 .68v1.91a1.92 1.92 0 0 1 1.17.52 2.07 2.07 0 0 1 .53 1.51zm-.3-9.58a.37.37 0 0 1-.2.11.34.34 0 0 1-.22-.07.31.31 0 0 1 0-.42 2.14 2.14 0 0 0-.25-3 2.2 2.2 0 0 0-3 .25.29.29 0 0 1-.42 0 .3.3 0 0 1 0-.42 2.81 2.81 0 0 1 3.86-.33 2.75 2.75 0 0 1 .23 3.88zm1 1.11a.33.33 0 0 1-.21-.07.29.29 0 0 1 0-.42 3.7 3.7 0 0 0-5.65-4.77.29.29 0 0 1-.42 0 .3.3 0 0 1 0-.42 4.29 4.29 0 1 1 6.55 5.53.31.31 0 0 1-.29.15zm1.41.91a.26.26 0 0 1-.2.1.29.29 0 0 1-.25-.48 5.28 5.28 0 1 0-8.07-6.8.29.29 0 0 1-.41 0 .3.3 0 0 1 0-.42 5.87 5.87 0 0 1 9 7.57zM6.92 19.19h1.26l.5-.79H6.42z"/></svg>