<svg id="Layer1" xmlns="http://www.w3.org/2000/svg" viewBox="0 0 24 24"><path d="M14.06 3.78a8.15 8.15 0 0 0-6.41 1 8.14 8.14 0 0 0-3.87 5.16 8.15 8.15 0 0 0 1 6.41 8.16 8.16 0 0 0 5.21 3.87 8.15 8.15 0 0 0 6.42-.95 8.19 8.19 0 0 0 3.86-5.2 8.17 8.17 0 0 0-.95-6.42 8.14 8.14 0 0 0-5.26-3.87zM12 8.58a3.68 3.68 0 0 1 2 .61 2.63 2.63 0 0 1-.61.59 2.88 2.88 0 0 0-2.86 0 2.44 2.44 0 0 1-.53-.59 3.68 3.68 0 0 1 2-.61zm-7 5.79v-.31a4 4 0 0 1 3.33-3.92 4 4 0 0 1 .27-3.4 4.06 4.06 0 0 1 1.74-1.6 3.2 3.2 0 0 0-1 1 3.08 3.08 0 0 0 2.39 4.6v.69a.87.87 0 0 0-.59.82 1.09 1.09 0 0 0 0 .18l-.58.34A3.08 3.08 0 0 0 5 14.37zm5.58.41a2.2 2.2 0 0 1-.21.81 3.7 3.7 0 0 1-2.05-3.31 1.64 1.64 0 0 1 0-.22 2.58 2.58 0 0 1 .81.23 2.89 2.89 0 0 0 1.42 2.49zM15.07 18A4 4 0 0 1 12 16.57 4 4 0 0 1 8.93 18a3.91 3.91 0 0 1-2.26-.71 3 3 0 0 0 1.33.36 3.09 3.09 0 0 0 2.8-4.37l.58-.34a.87.87 0 0 0 1.16 0l.58.34A3.09 3.09 0 0 0 16 17.65a3 3 0 0 0 1.37-.33 3.91 3.91 0 0 1-2.3.68zm-1.62-3.25a2.89 2.89 0 0 0 1.43-2.49 2.58 2.58 0 0 1 .81-.23 1.64 1.64 0 0 1 0 .22 3.7 3.7 0 0 1-2.05 3.31 2.26 2.26 0 0 1-.19-.78zm5.55-.38a3.08 3.08 0 0 0-5.59-1.57l-.58-.34a1.1 1.1 0 0 0 0-.18.87.87 0 0 0-.6-.82v-.69a3.07 3.07 0 0 0 1.47-5.62l.29.14a4 4 0 0 1 1.72 4.85A4 4 0 0 1 19 14.06v.31zM19.33 0H4.67A4.6 4.6 0 0 0 0 4.54v14.92A4.6 4.6 0 0 0 4.67 24h14.66A4.6 4.6 0 0 0 24 19.46V4.54A4.6 4.6 0 0 0 19.33 0zm1.93 14.32a9.18 9.18 0 0 1-4.35 5.87 9.19 9.19 0 0 1-7.23 1.07 9.2 9.2 0 0 1-5.87-4.36 9.17 9.17 0 0 1-1.07-7.22A9.19 9.19 0 0 1 7.1 3.81a9.18 9.18 0 0 1 7.23-1.07 9.17 9.17 0 0 1 5.86 4.36 9.16 9.16 0 0 1 1.07 7.22z"/></svg>