<svg data-name="Layer 1" xmlns="http://www.w3.org/2000/svg" viewBox="0 0 24 24"><path d="M19.33 0H4.67A4.6 4.6 0 0 0 0 4.54v14.92A4.6 4.6 0 0 0 4.67 24h14.66A4.6 4.6 0 0 0 24 19.46V4.54A4.6 4.6 0 0 0 19.33 0zm-2.95 13.48 1.63-1 1.74 1-1.64 1 1.61.93v1.05l-.91.52-1.61-.93v1.89l-1.73-1v-1.89l-1.23-.71-1.33.77v1.42l1.64.94v2l-1.64-.95v1.86l-.91.53-.91-.53v-1.85l-1.64.95v-2l1.64-.94v-1.43l-1.33-.77-1.23.71v1.89l-1.73 1v-1.89L5.19 17l-.91-.52v-1.07l1.61-.93-1.64-1 1.74-1 1.63 1 1.23-.71v-1.54l-1.23-.71-1.62.95-1.74-1 1.64-1-1.62-.88v-1L5.19 7 6.8 8V6.06l1.73 1V9l1.23.7 1.33-.76V7.47l-1.64-.94v-2l1.64 1V3.61l.91-.53.91.53v1.86l1.64-1v2l-1.64.94v1.48l1.33.76L15.47 9V7.06l1.73-1V8l1.61-1 .91.52v1l-1.61.93 1.64 1-1.74 1-1.63-1-1.23.71v1.54z"/></svg>